<svg id="svg" version="1.1" xmlns="http://www.w3.org/2000/svg" xmlns:xlink="http://www.w3.org/1999/xlink" width="400" height="317.94871794871796" viewBox="0, 0, 400,317.94871794871796"><g id="svgg"><path id="path0" d="M194.087 5.519 C 191.034 6.989,188.006 8.920,184.579 11.582 C 183.005 12.805,180.587 14.669,179.206 15.726 C 173.037 20.447,169.909 22.861,165.819 26.060 C 164.245 27.291,160.811 29.942,158.188 31.951 C 148.453 39.408,145.745 41.492,144.038 42.840 C 142.484 44.067,140.138 45.874,134.637 50.079 C 133.722 50.779,128.709 54.642,123.499 58.665 C 111.775 67.714,104.888 72.655,103.998 72.655 C 103.898 72.655,103.744 66.073,103.657 58.029 L 103.498 43.402 75.119 43.321 C 52.536 43.256,46.733 43.321,46.704 43.639 C 46.683 43.859,46.684 53.196,46.705 64.388 C 46.751 88.984,46.338 108.079,45.700 110.811 C 44.598 115.532,41.972 119.241,36.884 123.264 C 35.747 124.163,32.260 126.951,29.134 129.460 C 26.008 131.969,22.359 134.867,21.026 135.899 C 19.692 136.931,17.456 138.725,16.057 139.887 C 14.658 141.048,12.583 142.695,11.447 143.546 C 10.310 144.398,8.986 145.456,8.506 145.898 L 7.631 146.701 7.631 172.378 C 7.631 186.500,7.755 198.131,7.906 198.225 C 8.267 198.448,11.709 197.711,14.272 196.863 C 17.691 195.731,24.274 191.707,30.455 186.972 C 32.505 185.402,35.481 183.148,37.070 181.963 C 40.669 179.279,48.222 173.574,56.121 167.574 C 59.444 165.050,63.665 161.860,65.501 160.486 C 67.337 159.112,69.716 157.317,70.787 156.498 C 73.732 154.245,75.470 152.927,79.650 149.772 C 84.292 146.269,104.077 131.274,105.405 130.252 C 105.930 129.848,107.719 128.505,109.380 127.266 C 111.041 126.027,113.975 123.786,115.898 122.285 C 117.822 120.784,120.326 118.840,121.463 117.965 C 122.599 117.090,125.103 115.147,127.027 113.647 C 128.951 112.147,131.526 110.151,132.750 109.211 C 135.500 107.100,142.722 101.515,148.978 96.661 C 151.570 94.650,154.432 92.432,155.336 91.733 C 156.241 91.033,159.377 88.601,162.305 86.328 C 169.853 80.467,175.226 76.312,178.537 73.775 C 180.111 72.570,182.401 70.794,183.625 69.830 C 205.598 52.516,204.511 52.568,223.688 67.890 C 225.262 69.147,227.570 70.949,228.816 71.893 C 231.227 73.719,234.297 76.095,244.150 83.764 C 247.535 86.398,251.069 89.126,252.006 89.825 C 252.942 90.525,255.753 92.706,258.253 94.672 C 264.022 99.209,263.789 99.030,269.634 103.432 C 272.345 105.474,276.065 108.305,277.901 109.723 C 279.738 111.142,282.304 113.111,283.604 114.100 C 284.904 115.089,286.896 116.614,288.030 117.488 C 289.165 118.362,290.848 119.650,291.770 120.350 C 292.692 121.049,294.544 122.480,295.887 123.529 C 297.230 124.579,299.012 125.938,299.848 126.550 C 302.136 128.226,304.899 130.357,306.677 131.817 C 307.552 132.535,308.862 133.539,309.589 134.049 C 310.315 134.559,312.653 136.335,314.783 137.997 C 318.436 140.847,320.666 142.585,328.447 148.649 C 331.884 151.327,339.406 157.153,343.361 160.198 C 344.650 161.191,346.595 162.719,347.683 163.593 C 348.770 164.467,350.291 165.641,351.062 166.200 C 352.676 167.370,354.876 169.039,363.557 175.676 C 366.989 178.299,370.560 181.017,371.494 181.717 C 372.428 182.417,374.125 183.704,375.264 184.579 C 387.499 193.964,392.441 196.951,393.352 195.512 C 393.506 195.269,393.633 183.024,393.636 168.131 L 393.641 141.190 391.017 139.113 C 388.822 137.376,382.199 132.279,365.660 119.600 C 364.348 118.594,362.365 117.064,361.252 116.199 C 358.058 113.716,350.138 107.608,347.695 105.744 C 344.888 103.602,342.091 101.435,335.114 95.997 C 332.065 93.621,327.281 89.933,324.483 87.803 C 321.685 85.672,317.250 82.287,314.626 80.281 C 312.003 78.274,307.138 74.553,303.816 72.011 C 300.493 69.470,295.628 65.755,293.005 63.757 C 284.645 57.388,266.243 43.305,258.824 37.598 C 257.862 36.858,255.215 34.832,252.941 33.096 C 250.668 31.360,248.021 29.328,247.059 28.580 C 246.097 27.833,243.893 26.141,242.160 24.819 C 237.568 21.316,235.975 20.095,233.219 17.965 C 231.862 16.916,230.078 15.556,229.255 14.944 C 228.433 14.332,225.985 12.485,223.816 10.838 C 221.308 8.935,218.657 7.256,216.534 6.228 L 213.196 4.610 204.769 4.521 L 196.343 4.432 194.087 5.519 M148.410 257.472 C 155.624 257.520,167.428 257.520,174.642 257.472 C 181.856 257.424,175.954 257.385,161.526 257.385 C 147.099 257.385,141.196 257.424,148.410 257.472 M134.009 257.949 C 133.926 258.168,133.895 267.576,133.940 278.855 L 134.022 299.364 134.181 278.458 C 134.269 266.959,134.300 257.552,134.251 257.552 C 134.202 257.552,134.093 257.731,134.009 257.949 M188.477 284.653 C 188.543 306.151,188.478 311.781,188.159 312.006 C 187.859 312.219,187.879 312.257,188.235 312.160 C 188.756 312.018,189.150 258.340,188.635 257.824 C 188.502 257.692,188.432 269.765,188.477 284.653 M146.979 312.143 C 147.285 312.223,147.786 312.223,148.092 312.143 C 148.398 312.063,148.148 311.997,147.536 311.997 C 146.924 311.997,146.673 312.063,146.979 312.143 " stroke="none" fill="#2d8f99" fill-rule="evenodd"></path><path id="path1" d="M217.384 257.762 C 217.266 257.879,217.170 270.111,217.170 284.944 L 217.170 311.912 217.886 312.086 C 218.279 312.182,222.815 312.221,227.965 312.172 L 237.329 312.083 240.683 306.494 C 242.529 303.421,244.438 300.344,244.928 299.658 C 245.417 298.972,246.981 296.765,248.403 294.754 C 254.286 286.435,262.828 276.899,268.341 272.496 C 271.430 270.029,271.268 270.550,271.156 263.434 L 271.065 257.711 244.331 257.629 C 229.628 257.585,217.501 257.644,217.384 257.762 " stroke="none" fill="#9c4424" fill-rule="evenodd"></path><path id="path2" d="M134.395 257.762 C 134.025 258.132,134.146 298.897,134.523 300.937 C 135.637 306.961,140.214 311.053,146.762 311.878 C 150.089 312.298,187.512 312.388,188.158 311.978 C 188.474 311.778,188.540 306.113,188.476 284.718 L 188.394 257.711 161.502 257.629 C 146.711 257.585,134.513 257.644,134.395 257.762 " stroke="none" fill="#2c3c4c" fill-rule="evenodd"></path><path id="path3" d="M195.866 4.099 C 193.234 4.675,188.811 7.450,181.327 13.221 C 179.268 14.808,174.165 18.743,169.987 21.965 C 165.809 25.186,161.659 28.388,160.766 29.080 C 159.872 29.772,158.200 31.059,157.048 31.941 C 155.897 32.824,151.899 35.906,148.163 38.792 C 144.427 41.677,139.494 45.469,137.201 47.218 C 134.908 48.967,131.538 51.570,129.711 53.003 C 113.841 65.459,105.265 71.666,104.703 71.105 C 104.565 70.967,104.410 64.427,104.360 56.572 L 104.268 42.289 75.543 42.289 C 52.950 42.289,46.749 42.374,46.491 42.687 C 46.274 42.950,46.111 52.959,46.008 72.337 C 45.920 88.974,45.701 103.647,45.501 106.359 L 45.148 111.129 43.496 114.561 C 41.528 118.651,40.945 119.258,33.068 125.432 C 29.918 127.901,27.055 130.200,24.347 132.436 C 21.337 134.921,18.396 137.159,17.096 137.953 C 16.443 138.352,15.656 138.998,15.347 139.389 C 15.038 139.780,13.178 141.349,11.213 142.876 C 9.248 144.403,7.495 145.925,7.316 146.259 C 6.695 147.420,7.047 198.432,7.679 198.831 C 8.657 199.448,16.099 197.266,19.009 195.510 C 23.629 192.720,27.583 190.050,30.843 187.519 C 32.154 186.501,33.832 185.240,34.570 184.716 C 35.765 183.870,43.482 178.025,54.481 169.634 C 56.544 168.060,59.212 166.057,60.409 165.183 C 61.607 164.308,64.852 161.871,67.621 159.766 C 75.239 153.973,86.032 145.803,95.568 138.609 C 100.279 135.055,105.851 130.848,107.949 129.262 C 111.452 126.613,116.716 122.545,128.346 113.497 C 129.369 112.701,131.423 111.117,132.909 109.977 C 134.396 108.837,137.628 106.340,140.093 104.429 C 142.557 102.518,147.350 98.810,150.745 96.189 C 162.017 87.485,165.802 84.548,167.568 83.134 C 168.529 82.364,172.321 79.423,175.994 76.599 C 179.666 73.775,183.386 70.904,184.261 70.219 C 203.117 55.454,204.023 55.086,210.970 59.369 C 213.682 61.041,215.274 62.217,223.646 68.733 C 225.593 70.249,229.618 73.365,232.591 75.659 C 235.564 77.953,240.072 81.444,242.607 83.418 C 245.143 85.392,249.346 88.643,251.948 90.642 C 254.550 92.641,257.811 95.207,259.195 96.343 C 262.115 98.741,262.760 99.237,267.886 103.026 C 269.984 104.577,273.776 107.443,276.312 109.393 C 278.847 111.344,281.924 113.701,283.148 114.632 C 284.372 115.562,286.304 117.054,287.440 117.947 C 288.577 118.839,290.294 120.140,291.256 120.836 C 292.218 121.533,293.935 122.836,295.072 123.733 C 296.208 124.629,302.271 129.314,308.545 134.144 C 314.818 138.974,321.062 143.784,322.419 144.833 C 328.254 149.344,334.842 154.462,337.202 156.318 C 342.550 160.524,347.591 164.418,353.418 168.845 C 359.197 173.235,361.989 175.361,372.934 183.711 C 386.226 193.851,387.441 194.665,391.611 196.226 C 393.088 196.778,393.446 196.819,393.674 196.460 C 393.825 196.221,393.951 183.547,393.954 168.297 L 393.959 140.568 391.812 138.865 C 390.632 137.928,388.879 136.576,387.917 135.860 C 386.955 135.144,385.238 133.831,384.102 132.943 C 382.965 132.054,380.103 129.863,377.742 128.074 C 375.382 126.285,372.806 124.307,372.019 123.679 C 368.168 120.603,352.987 108.842,348.022 105.087 C 346.143 103.667,330.049 91.258,327.195 89.030 C 326.187 88.243,322.535 85.453,319.079 82.830 C 315.624 80.207,311.691 77.202,310.339 76.153 C 308.015 74.348,300.820 68.835,292.494 62.480 C 289.158 59.934,281.736 54.258,277.111 50.715 C 276.198 50.016,274.392 48.633,273.099 47.643 C 271.805 46.653,269.603 44.960,268.203 43.882 C 266.804 42.805,263.800 40.511,261.526 38.785 C 259.253 37.059,255.289 34.030,252.718 32.052 C 250.147 30.075,246.928 27.600,245.564 26.551 C 221.842 8.311,220.556 7.375,216.566 5.446 L 213.523 3.975 205.251 3.915 C 200.702 3.882,196.479 3.965,195.866 4.099 M215.456 5.440 C 217.985 6.493,221.331 8.560,224.568 11.069 C 225.658 11.914,228.553 14.135,231.002 16.003 C 233.450 17.872,236.669 20.343,238.156 21.494 C 239.642 22.646,242.146 24.563,243.720 25.754 C 246.363 27.755,253.629 33.312,259.539 37.852 C 260.894 38.894,263.167 40.640,264.590 41.733 C 266.013 42.826,267.551 44.003,268.008 44.348 C 268.465 44.694,272.488 47.771,276.948 51.187 C 281.407 54.603,285.715 57.897,286.521 58.508 C 287.327 59.119,289.974 61.143,292.403 63.006 C 302.580 70.811,306.386 73.724,312.719 78.554 C 316.391 81.356,319.825 83.983,320.350 84.392 C 320.874 84.802,324.738 87.770,328.935 90.988 C 333.132 94.206,337.496 97.561,338.633 98.443 C 341.891 100.970,350.277 107.444,353.418 109.856 C 360.803 115.527,366.567 119.987,367.716 120.918 C 368.409 121.480,371.271 123.694,374.075 125.838 C 385.533 134.600,387.811 136.350,390.661 138.574 L 393.641 140.900 393.641 168.393 C 393.641 191.748,393.573 195.912,393.193 196.058 C 391.771 196.604,386.040 193.208,378.559 187.389 C 377.696 186.718,375.693 185.200,374.107 184.017 C 372.521 182.834,370.401 181.224,369.396 180.440 C 365.682 177.544,363.872 176.148,362.321 174.985 C 361.447 174.329,358.871 172.379,356.598 170.652 C 354.324 168.925,351.322 166.643,349.926 165.583 C 348.529 164.522,345.811 162.417,343.884 160.904 C 341.958 159.391,340.007 157.875,339.549 157.535 C 339.090 157.194,337.525 155.986,336.071 154.849 C 334.616 153.712,331.757 151.494,329.717 149.921 C 327.677 148.347,325.292 146.486,324.417 145.787 C 322.715 144.427,316.115 139.301,313.363 137.202 C 310.845 135.282,307.209 132.490,305.217 130.948 C 303.169 129.362,295.813 123.739,293.005 121.613 C 291.075 120.152,288.943 118.505,285.612 115.899 C 283.435 114.197,266.459 101.285,263.557 99.124 C 262.440 98.293,259.809 96.246,257.711 94.575 C 255.612 92.903,252.822 90.716,251.510 89.713 C 250.199 88.711,248.267 87.221,247.218 86.401 C 243.745 83.690,240.271 80.995,231.340 74.086 C 226.480 70.326,221.196 66.222,219.598 64.966 C 205.549 53.923,204.506 53.943,189.562 65.523 C 186.531 67.872,182.293 71.153,180.144 72.814 C 177.994 74.475,173.833 77.695,170.897 79.968 C 167.961 82.242,164.831 84.663,163.940 85.349 C 159.098 89.080,157.942 89.978,155.326 92.049 C 153.752 93.295,150.747 95.624,148.649 97.226 C 140.022 103.810,136.795 106.294,135.135 107.632 C 134.173 108.408,131.025 110.860,128.140 113.083 C 125.254 115.305,120.406 119.066,117.366 121.440 C 114.326 123.813,110.307 126.900,108.435 128.299 C 102.607 132.653,95.482 138.029,89.030 142.939 C 85.620 145.534,81.328 148.780,79.491 150.152 C 77.655 151.523,75.654 153.034,75.045 153.509 C 74.123 154.227,70.852 156.709,67.091 159.544 C 66.653 159.874,62.719 162.849,58.347 166.156 C 53.975 169.463,48.180 173.839,45.469 175.880 C 42.758 177.922,37.467 181.919,33.710 184.762 C 21.291 194.163,16.835 196.714,10.238 198.199 C 8.496 198.592,8.175 198.590,7.774 198.190 C 7.070 197.486,7.083 147.371,7.787 146.366 C 8.047 145.994,9.370 144.864,10.728 143.854 C 12.085 142.845,14.068 141.264,15.134 140.342 C 16.201 139.419,18.429 137.620,20.087 136.343 C 21.745 135.067,26.298 131.447,30.205 128.299 C 34.112 125.151,38.036 121.993,38.925 121.280 C 46.236 115.417,46.498 113.469,46.556 64.547 L 46.582 43.084 75.020 43.003 C 97.560 42.939,103.511 43.005,103.711 43.321 C 103.851 43.541,103.967 50.123,103.970 57.949 C 103.972 65.775,104.053 72.178,104.149 72.178 C 105.306 72.178,114.906 65.161,132.428 51.510 C 135.010 49.499,138.249 46.995,139.626 45.946 C 143.974 42.634,157.039 32.576,164.200 27.027 C 166.796 25.016,169.675 22.798,170.600 22.099 C 171.524 21.399,175.619 18.244,179.701 15.087 C 187.838 8.793,190.757 6.780,193.738 5.406 L 195.707 4.499 204.394 4.475 L 213.081 4.452 215.456 5.440 M216.727 179.199 C 216.328 180.240,216.511 233.872,216.916 234.277 C 217.469 234.830,271.562 234.830,272.114 234.277 C 272.624 233.767,272.662 194.042,272.156 191.235 C 271.483 187.508,268.185 182.831,264.321 180.124 C 262.227 178.657,217.270 177.784,216.727 179.199 M260.178 179.641 C 264.096 180.140,268.671 183.784,270.769 188.076 L 271.701 189.984 271.795 211.556 C 271.865 227.660,271.795 233.241,271.518 233.575 C 271.101 234.077,218.351 234.258,217.566 233.759 C 217.249 233.558,217.183 227.894,217.248 206.498 L 217.329 179.491 219.555 179.332 C 223.448 179.054,257.608 179.314,260.178 179.641 M133.384 257.313 C 133.289 257.707,133.251 267.615,133.301 279.332 L 133.391 300.636 133.468 278.925 L 133.545 257.213 134.261 256.926 L 134.976 256.638 134.267 256.618 C 133.785 256.604,133.502 256.828,133.384 257.313 M188.553 256.868 L 189.348 257.103 189.430 284.593 C 189.507 310.155,189.475 312.111,188.972 312.480 C 188.675 312.699,188.585 312.878,188.772 312.878 C 189.803 312.878,189.829 312.110,189.747 284.385 L 189.666 256.757 188.712 256.694 C 187.824 256.636,187.813 256.648,188.553 256.868 M133.590 301.113 C 133.590 301.375,133.713 301.876,133.863 302.226 C 134.036 302.627,134.137 302.685,134.137 302.385 C 134.137 302.122,134.014 301.622,133.863 301.272 C 133.691 300.871,133.590 300.812,133.590 301.113 M134.206 303.357 C 134.193 303.630,134.404 304.131,134.676 304.470 C 135.162 305.078,135.166 305.077,134.878 304.452 C 134.717 304.102,134.506 303.601,134.408 303.339 C 134.256 302.927,134.228 302.929,134.206 303.357 M135.135 305.441 C 135.135 305.625,135.600 306.274,136.169 306.881 C 136.737 307.489,136.974 307.692,136.695 307.332 C 136.416 306.972,135.951 306.323,135.662 305.891 C 135.372 305.459,135.135 305.256,135.135 305.441 M139.905 310.491 C 139.905 310.706,142.487 311.991,142.631 311.847 C 142.698 311.780,142.112 311.414,141.328 311.034 C 140.545 310.653,139.905 310.409,139.905 310.491 " stroke="none" fill="#a1cbc9" fill-rule="evenodd"></path><path id="path4" d="M191.506 6.535 C 190.419 7.151,189.441 7.799,189.332 7.975 C 189.223 8.151,189.826 7.876,190.672 7.364 C 191.518 6.853,192.639 6.208,193.164 5.932 C 193.688 5.657,193.975 5.427,193.800 5.423 C 193.625 5.419,192.593 5.919,191.506 6.535 M215.289 5.527 C 215.613 5.823,219.396 7.624,219.396 7.481 C 219.396 7.303,215.723 5.405,215.377 5.405 C 215.256 5.405,215.216 5.460,215.289 5.527 M221.622 9.003 C 221.622 9.081,222.147 9.546,222.789 10.036 C 223.431 10.526,223.856 10.764,223.733 10.565 C 223.482 10.158,221.622 8.782,221.622 9.003 M185.851 10.369 L 184.579 11.507 185.930 10.496 C 187.093 9.626,187.513 9.207,187.202 9.226 C 187.158 9.228,186.550 9.743,185.851 10.369 M224.165 10.910 C 224.165 10.989,224.691 11.454,225.333 11.944 C 225.975 12.433,226.400 12.672,226.277 12.473 C 226.025 12.066,224.165 10.690,224.165 10.910 M227.009 13.173 C 227.482 13.743,230.207 15.711,230.207 15.482 C 230.207 15.412,229.384 14.739,228.378 13.987 C 227.373 13.235,226.756 12.869,227.009 13.173 M180.286 14.665 C 179.178 15.637,179.178 15.638,180.197 14.960 C 180.760 14.585,181.305 14.142,181.408 13.976 C 181.715 13.479,181.461 13.636,180.286 14.665 M230.924 16.114 C 231.504 16.772,234.340 18.895,234.340 18.672 C 234.340 18.601,233.446 17.855,232.353 17.012 C 231.260 16.170,230.617 15.766,230.924 16.114 M176.312 17.695 C 175.354 18.550,175.282 18.669,176.022 18.174 C 176.901 17.587,178.006 16.515,177.702 16.546 C 177.637 16.553,177.011 17.069,176.312 17.695 M234.757 18.980 C 235.024 19.413,237.520 21.427,237.520 21.210 C 237.520 21.129,236.847 20.511,236.024 19.837 C 235.202 19.163,234.631 18.777,234.757 18.980 M238.890 22.160 C 239.158 22.593,241.653 24.606,241.653 24.389 C 241.653 24.308,240.980 23.690,240.158 23.016 C 239.335 22.342,238.765 21.957,238.890 22.160 M166.296 25.476 C 165.188 26.447,165.187 26.449,166.207 25.771 C 166.770 25.396,167.315 24.953,167.418 24.786 C 167.724 24.290,167.470 24.447,166.296 25.476 M241.971 24.599 C 241.971 24.686,242.401 25.064,242.925 25.437 C 243.450 25.811,243.879 26.045,243.879 25.957 C 243.879 25.870,243.450 25.493,242.925 25.119 C 242.401 24.746,241.971 24.512,241.971 24.599 M245.151 27.024 C 246.429 28.176,248.013 29.359,248.013 29.162 C 248.013 29.089,247.118 28.352,246.025 27.525 C 244.932 26.698,244.539 26.473,245.151 27.024 M162.559 28.253 C 159.282 30.851,158.956 31.331,162.094 28.939 C 164.359 27.212,165.343 26.344,164.963 26.408 C 164.909 26.417,163.827 27.247,162.559 28.253 M248.649 29.687 C 248.649 29.780,250.115 30.957,251.908 32.302 C 253.700 33.647,255.346 34.888,255.564 35.060 C 255.783 35.231,255.962 35.303,255.962 35.218 C 255.962 35.134,254.853 34.228,253.498 33.206 C 252.142 32.183,250.497 30.935,249.841 30.432 C 249.185 29.929,248.649 29.594,248.649 29.687 M156.598 32.937 L 155.644 33.757 156.677 33.073 C 157.246 32.697,157.711 32.327,157.711 32.252 C 157.711 32.014,157.576 32.097,156.598 32.937 M152.464 36.124 L 151.192 37.262 152.544 36.251 C 153.707 35.381,154.126 34.962,153.816 34.981 C 153.772 34.983,153.164 35.498,152.464 36.124 M256.754 35.907 C 257.102 36.303,258.390 37.333,259.616 38.196 C 261.834 39.759,261.310 39.266,257.908 36.592 C 256.925 35.819,256.406 35.511,256.754 35.907 M263.593 41.106 C 263.593 41.176,264.487 41.923,265.580 42.765 C 266.673 43.607,267.317 44.012,267.010 43.664 C 266.429 43.005,263.593 40.882,263.593 41.106 M144.356 42.328 C 143.248 43.300,143.248 43.301,144.267 42.623 C 144.830 42.248,145.375 41.805,145.478 41.639 C 145.785 41.142,145.530 41.299,144.356 42.328 M46.635 43.137 C 46.518 43.254,46.425 43.504,46.428 43.694 C 46.431 43.897,46.537 43.874,46.686 43.639 C 46.887 43.323,52.806 43.257,75.219 43.321 L 103.498 43.402 103.577 57.711 C 103.668 73.996,103.568 73.033,105.076 72.143 C 106.437 71.340,106.571 71.016,105.262 71.693 C 104.746 71.960,104.245 72.178,104.149 72.178 C 104.053 72.178,103.975 65.823,103.975 58.055 C 103.975 50.287,103.888 43.705,103.782 43.428 C 103.580 42.903,47.156 42.616,46.635 43.137 M142.595 43.582 C 142.479 43.768,141.076 44.901,139.476 46.099 C 136.679 48.192,133.624 50.713,135.483 49.393 C 139.808 46.322,143.563 43.243,142.983 43.243 C 142.884 43.243,142.710 43.396,142.595 43.582 M268.045 44.564 C 268.307 44.834,270.167 46.313,272.178 47.851 C 274.189 49.389,276.014 50.788,276.232 50.959 C 276.451 51.130,276.630 51.200,276.630 51.114 C 276.630 50.982,269.516 45.421,268.045 44.403 C 267.621 44.110,267.621 44.128,268.045 44.564 M46.566 60.254 C 46.566 66.375,46.609 68.834,46.661 65.719 C 46.713 62.603,46.713 57.595,46.661 54.590 C 46.609 51.585,46.566 54.134,46.566 60.254 M130.754 52.749 C 129.481 53.751,128.194 54.830,127.892 55.145 C 127.591 55.460,128.593 54.764,130.119 53.597 C 132.445 51.818,133.618 50.781,133.167 50.900 C 133.113 50.915,132.027 51.747,130.754 52.749 M276.948 51.298 C 276.948 51.385,277.520 51.910,278.219 52.464 C 278.919 53.018,279.491 53.400,279.491 53.313 C 279.491 53.225,278.919 52.700,278.219 52.146 C 277.520 51.592,276.948 51.210,276.948 51.298 M279.923 53.664 C 280.175 54.071,282.035 55.447,282.035 55.226 C 282.035 55.148,281.510 54.683,280.868 54.193 C 280.226 53.703,279.801 53.465,279.923 53.664 M282.353 55.431 C 282.353 55.519,282.925 56.044,283.625 56.598 C 284.324 57.152,284.897 57.534,284.897 57.446 C 284.897 57.359,284.324 56.834,283.625 56.280 C 282.925 55.726,282.353 55.344,282.353 55.431 M204.060 56.510 C 204.631 56.581,205.490 56.580,205.968 56.507 C 206.445 56.434,205.978 56.377,204.928 56.378 C 203.879 56.380,203.488 56.439,204.060 56.510 M124.630 57.575 L 123.529 58.551 124.722 57.696 C 125.775 56.940,126.118 56.598,125.823 56.598 C 125.772 56.598,125.236 57.037,124.630 57.575 M198.808 58.501 C 197.715 59.194,196.820 59.835,196.820 59.924 C 196.820 60.014,197.572 59.611,198.490 59.030 C 199.408 58.448,200.445 57.810,200.795 57.612 C 201.145 57.415,201.288 57.250,201.113 57.246 C 200.938 57.243,199.901 57.807,198.808 58.501 M285.374 57.782 C 285.751 58.175,289.299 61.007,289.984 61.461 C 290.246 61.635,289.889 61.262,289.189 60.632 C 287.957 59.522,284.732 57.113,285.374 57.782 M212.560 59.677 C 212.734 59.846,213.665 60.526,214.626 61.187 C 216.036 62.155,216.160 62.201,215.262 61.423 C 214.229 60.527,211.851 58.990,212.560 59.677 M194.992 61.028 C 194.284 61.541,193.603 62.124,193.480 62.323 C 193.308 62.602,195.797 60.854,196.476 60.219 C 196.969 59.759,196.062 60.253,194.992 61.028 M119.078 61.879 L 117.806 63.017 119.157 62.007 C 120.320 61.137,120.740 60.718,120.429 60.736 C 120.386 60.739,119.777 61.253,119.078 61.879 M216.933 62.855 C 217.513 63.513,220.350 65.636,220.350 65.413 C 220.350 65.342,219.455 64.596,218.362 63.753 C 217.269 62.911,216.626 62.507,216.933 62.855 M189.507 65.210 C 187.671 66.618,185.882 68.064,185.533 68.423 C 184.929 69.044,191.696 63.970,192.675 63.068 C 193.816 62.017,192.588 62.847,189.507 65.210 M292.116 62.990 C 292.548 63.525,295.390 65.617,295.390 65.400 C 295.390 65.322,294.567 64.642,293.561 63.887 C 292.556 63.133,291.905 62.729,292.116 62.990 M114.785 65.049 C 113.030 66.438,112.377 67.116,113.672 66.204 C 114.946 65.308,116.574 63.936,116.375 63.925 C 116.288 63.921,115.572 64.427,114.785 65.049 M221.622 66.455 C 223.089 67.783,226.391 70.348,226.391 70.159 C 226.391 70.016,223.425 67.604,221.463 66.153 C 220.721 65.604,220.756 65.671,221.622 66.455 M109.698 68.721 C 105.977 71.342,105.703 71.765,109.305 69.327 C 111.752 67.670,112.996 66.684,112.499 66.794 C 112.445 66.807,111.184 67.673,109.698 68.721 M298.887 68.144 C 298.887 68.223,299.412 68.688,300.054 69.177 C 300.696 69.667,301.121 69.905,300.999 69.707 C 300.747 69.300,298.887 67.923,298.887 68.144 M182.591 70.607 C 181.498 71.480,180.604 72.264,180.604 72.350 C 180.604 72.436,181.534 71.776,182.671 70.883 C 184.447 69.487,185.003 68.962,184.658 69.009 C 184.614 69.015,183.684 69.734,182.591 70.607 M301.545 70.198 C 301.797 70.605,303.657 71.981,303.657 71.761 C 303.657 71.682,303.131 71.217,302.489 70.727 C 301.847 70.238,301.422 69.999,301.545 70.198 M228.299 71.630 C 228.299 71.701,229.193 72.447,230.286 73.290 C 231.379 74.132,232.022 74.536,231.716 74.188 C 231.135 73.530,228.299 71.407,228.299 71.630 M176.303 75.541 L 174.722 76.996 176.391 75.650 C 177.889 74.443,178.249 74.086,177.972 74.086 C 177.924 74.086,177.173 74.741,176.303 75.541 M233.704 75.781 C 233.704 75.869,234.277 76.394,234.976 76.948 C 235.676 77.502,236.248 77.883,236.248 77.796 C 236.248 77.708,235.676 77.184,234.976 76.630 C 234.277 76.076,233.704 75.694,233.704 75.781 M171.065 79.519 C 169.229 80.928,167.512 82.307,167.250 82.583 C 166.987 82.860,168.525 81.757,170.668 80.132 C 174.078 77.546,174.817 76.930,174.483 76.953 C 174.440 76.956,172.901 78.111,171.065 79.519 M46.554 83.784 C 46.555 86.932,46.602 88.176,46.660 86.550 C 46.718 84.923,46.718 82.348,46.659 80.827 C 46.601 79.305,46.554 80.636,46.554 83.784 M313.196 79.136 C 314.559 80.328,317.011 82.126,317.011 81.934 C 317.011 81.790,313.894 79.355,312.730 78.589 C 312.374 78.355,312.583 78.601,313.196 79.136 M240.814 81.327 C 241.065 81.734,242.925 83.110,242.925 82.889 C 242.925 82.811,242.400 82.346,241.758 81.856 C 241.116 81.366,240.691 81.128,240.814 81.327 M317.329 82.129 C 317.329 82.210,318.002 82.828,318.825 83.502 C 319.647 84.176,320.217 84.561,320.092 84.358 C 319.825 83.926,317.329 81.912,317.329 82.129 M165.183 84.149 C 164.225 85.005,164.154 85.123,164.893 84.629 C 165.772 84.041,166.877 82.970,166.573 83.001 C 166.508 83.007,165.882 83.524,165.183 84.149 M245.123 84.686 C 245.588 85.264,247.377 86.627,247.377 86.402 C 247.377 86.332,246.769 85.792,246.025 85.201 C 245.282 84.610,244.876 84.378,245.123 84.686 M320.509 84.678 C 320.509 84.757,321.034 85.222,321.676 85.712 C 322.318 86.201,322.743 86.439,322.620 86.241 C 322.369 85.834,320.509 84.457,320.509 84.678 M162.003 86.523 C 160.059 88.096,159.445 88.729,160.731 87.833 C 161.899 87.020,163.970 85.241,163.752 85.239 C 163.665 85.238,162.878 85.816,162.003 86.523 M247.695 86.580 C 247.695 86.662,248.368 87.279,249.190 87.953 C 250.013 88.627,250.583 89.013,250.458 88.810 C 250.190 88.377,247.695 86.364,247.695 86.580 M323.167 86.732 C 323.418 87.139,325.278 88.516,325.278 88.295 C 325.278 88.216,324.753 87.751,324.111 87.261 C 323.469 86.772,323.044 86.533,323.167 86.732 M158.029 89.693 L 156.598 90.990 158.108 89.813 C 159.432 88.781,159.825 88.392,159.539 88.395 C 159.495 88.396,158.816 88.980,158.029 89.693 M251.510 89.646 C 253.836 91.587,254.814 92.294,254.213 91.599 C 253.863 91.195,252.933 90.441,252.146 89.923 C 251.359 89.406,251.073 89.281,251.510 89.646 M151.987 94.306 C 148.274 97.205,145.932 99.171,147.536 98.044 C 148.806 97.152,156.439 91.161,156.439 91.057 C 156.439 90.838,156.298 90.941,151.987 94.306 M261.049 97.098 C 261.867 98.020,268.558 102.959,268.196 102.373 C 268.085 102.193,266.896 101.262,265.555 100.305 C 264.214 99.347,262.472 98.033,261.685 97.383 C 260.589 96.478,260.440 96.411,261.049 97.098 M46.230 102.544 C 46.231 104.992,46.281 105.952,46.341 104.676 C 46.402 103.401,46.401 101.397,46.340 100.225 C 46.279 99.052,46.230 100.095,46.230 102.544 M338.315 98.345 C 338.315 98.465,341.496 101.047,342.826 102.005 C 344.186 102.986,343.238 102.031,341.435 100.603 C 338.987 98.666,338.315 98.179,338.315 98.345 M142.448 101.788 C 141.340 102.759,141.340 102.760,142.359 102.082 C 142.922 101.708,143.467 101.265,143.570 101.098 C 143.877 100.602,143.623 100.758,142.448 101.788 M344.833 103.471 C 346.229 104.712,348.808 106.632,348.808 106.430 C 348.808 106.360,347.627 105.411,346.184 104.321 C 344.742 103.231,344.134 102.849,344.833 103.471 M268.680 102.775 C 268.680 102.858,270.111 104.027,271.860 105.374 C 273.609 106.721,275.040 107.756,275.040 107.674 C 275.040 107.555,272.636 105.641,269.078 102.928 C 268.859 102.761,268.680 102.692,268.680 102.775 M137.031 105.905 L 135.930 106.882 137.122 106.027 C 138.176 105.270,138.519 104.928,138.223 104.928 C 138.173 104.928,137.636 105.368,137.031 105.905 M349.224 106.739 C 349.492 107.171,351.987 109.185,351.987 108.968 C 351.987 108.887,351.314 108.269,350.492 107.595 C 349.669 106.921,349.099 106.536,349.224 106.739 M134.181 108.163 C 133.348 108.919,133.149 109.193,133.704 108.819 C 134.582 108.228,136.040 106.818,135.741 106.850 C 135.670 106.857,134.968 107.448,134.181 108.163 M275.358 107.896 C 275.358 107.983,275.930 108.508,276.630 109.062 C 277.329 109.616,277.901 109.998,277.901 109.910 C 277.901 109.823,277.329 109.298,276.630 108.744 C 275.930 108.190,275.358 107.808,275.358 107.896 M353.259 109.979 C 354.623 111.171,357.075 112.969,357.075 112.777 C 357.075 112.633,353.958 110.197,352.793 109.431 C 352.437 109.197,352.647 109.444,353.259 109.979 M131.134 110.516 L 129.889 111.652 131.240 110.622 C 132.475 109.680,132.776 109.380,132.485 109.380 C 132.427 109.380,131.819 109.891,131.134 110.516 M278.219 110.115 C 278.219 110.194,278.745 110.659,279.387 111.149 C 280.029 111.638,280.454 111.877,280.331 111.678 C 280.079 111.271,278.219 109.895,278.219 110.115 M44.827 112.776 C 44.112 114.632,44.114 114.729,44.839 113.412 C 45.206 112.744,45.459 112.054,45.401 111.879 C 45.343 111.704,45.084 112.107,44.827 112.776 M282.353 113.311 C 282.353 113.399,282.782 113.776,283.307 114.149 C 283.831 114.523,284.261 114.757,284.261 114.670 C 284.261 114.582,283.831 114.205,283.307 113.831 C 282.782 113.458,282.353 113.224,282.353 113.311 M359.272 114.574 C 359.737 115.153,361.526 116.516,361.526 116.291 C 361.526 116.221,360.918 115.680,360.175 115.090 C 359.432 114.499,359.025 114.267,359.272 114.574 M42.766 117.011 C 42.495 117.536,42.345 117.965,42.432 117.965 C 42.519 117.965,42.813 117.536,43.084 117.011 C 43.356 116.486,43.506 116.057,43.419 116.057 C 43.331 116.057,43.038 116.486,42.766 117.011 M122.722 117.034 L 121.622 118.011 122.814 117.155 C 123.868 116.399,124.211 116.057,123.915 116.057 C 123.865 116.057,123.328 116.497,122.722 117.034 M286.486 116.449 C 286.486 116.597,290.153 119.467,292.687 121.303 C 293.818 122.122,293.996 122.197,293.302 121.561 C 292.767 121.070,291.693 120.212,290.918 119.654 C 290.142 119.097,288.828 118.117,287.997 117.477 C 287.166 116.838,286.486 116.375,286.486 116.449 M363.548 117.893 C 363.800 118.300,365.660 119.676,365.660 119.455 C 365.660 119.377,365.134 118.912,364.492 118.422 C 363.850 117.932,363.426 117.694,363.548 117.893 M41.311 119.117 C 40.887 119.576,39.610 120.707,38.474 121.631 C 35.887 123.732,33.671 125.716,35.168 124.590 C 38.497 122.084,42.764 118.283,42.245 118.283 C 42.156 118.283,41.735 118.658,41.311 119.117 M118.589 120.214 L 117.488 121.191 118.680 120.335 C 119.734 119.579,120.077 119.237,119.781 119.237 C 119.731 119.237,119.194 119.676,118.589 120.214 M365.978 119.625 C 365.978 119.687,366.657 120.297,367.488 120.979 C 368.319 121.662,368.712 121.892,368.362 121.489 C 367.744 120.779,365.978 119.397,365.978 119.625 M113.196 124.351 C 110.788 126.287,109.632 127.342,110.820 126.520 C 111.976 125.719,115.739 122.680,115.739 122.546 C 115.739 122.317,115.619 122.402,113.196 124.351 M294.754 122.823 C 294.754 122.893,295.648 123.640,296.741 124.482 C 297.834 125.324,298.477 125.729,298.170 125.381 C 297.590 124.722,294.754 122.599,294.754 122.823 M370.429 123.158 C 370.429 123.245,371.002 123.770,371.701 124.324 C 372.401 124.878,372.973 125.260,372.973 125.173 C 372.973 125.085,372.401 124.560,371.701 124.006 C 371.002 123.452,370.429 123.071,370.429 123.158 M108.732 127.845 L 107.631 128.822 108.824 127.966 C 109.877 127.210,110.220 126.868,109.924 126.868 C 109.874 126.868,109.338 127.308,108.732 127.845 M300.159 126.956 C 300.159 127.017,300.624 127.407,301.192 127.823 C 301.832 128.291,302.054 128.368,301.775 128.024 C 301.352 127.503,300.159 126.715,300.159 126.956 M375.835 127.292 C 375.835 127.379,376.407 127.904,377.107 128.458 C 377.806 129.012,378.378 129.394,378.378 129.306 C 378.378 129.219,377.806 128.694,377.107 128.140 C 376.407 127.586,375.835 127.204,375.835 127.292 M302.520 128.738 C 302.630 128.916,303.589 129.723,304.652 130.530 C 305.714 131.338,306.493 131.853,306.383 131.675 C 306.273 131.497,305.314 130.691,304.251 129.883 C 303.189 129.075,302.410 128.560,302.520 128.738 M27.561 130.342 C 24.945 132.506,24.590 132.983,26.948 131.167 C 28.710 129.809,29.871 128.743,29.530 128.794 C 29.465 128.803,28.579 129.500,27.561 130.342 M105.882 129.844 C 105.095 130.423,104.237 131.166,103.975 131.496 C 103.712 131.826,104.070 131.636,104.769 131.075 C 105.469 130.514,106.399 129.772,106.836 129.426 C 108.138 128.396,107.428 128.707,105.882 129.844 M378.696 129.511 C 378.696 129.590,379.222 130.055,379.864 130.545 C 380.506 131.034,380.931 131.273,380.808 131.074 C 380.556 130.667,378.696 129.290,378.696 129.511 M102.226 132.778 L 101.272 133.598 102.305 132.914 C 102.874 132.538,103.339 132.168,103.339 132.093 C 103.339 131.855,103.204 131.938,102.226 132.778 M23.668 133.625 L 22.734 134.658 23.768 133.724 C 24.336 133.211,24.801 132.746,24.801 132.691 C 24.801 132.445,24.539 132.662,23.668 133.625 M310.493 134.916 C 311.725 136.026,314.950 138.435,314.308 137.766 C 313.931 137.373,310.383 134.541,309.698 134.087 C 309.436 133.913,309.793 134.286,310.493 134.916 M21.304 135.492 C 20.196 136.463,20.195 136.465,21.215 135.787 C 21.778 135.412,22.323 134.969,22.426 134.802 C 22.732 134.306,22.478 134.462,21.304 135.492 M386.963 135.887 C 386.963 135.974,387.393 136.351,387.917 136.725 C 388.442 137.099,388.871 137.333,388.871 137.245 C 388.871 137.158,388.442 136.781,387.917 136.407 C 387.393 136.033,386.963 135.799,386.963 135.887 M94.595 138.509 L 93.323 139.647 94.674 138.636 C 95.837 137.766,96.257 137.347,95.946 137.366 C 95.902 137.368,95.294 137.883,94.595 138.509 M16.644 139.137 L 15.103 140.595 16.773 139.246 C 17.691 138.504,18.442 137.848,18.442 137.788 C 18.442 137.508,18.074 137.784,16.644 139.137 M314.884 138.217 C 315.151 138.650,317.647 140.663,317.647 140.447 C 317.647 140.366,316.974 139.748,316.152 139.074 C 315.329 138.400,314.759 138.014,314.884 138.217 M317.965 140.635 C 317.965 140.755,321.147 143.336,322.476 144.295 C 323.837 145.276,322.889 144.320,321.085 142.893 C 318.637 140.955,317.965 140.469,317.965 140.635 M87.122 144.070 C 84.593 146.039,83.912 146.725,85.851 145.351 C 87.509 144.176,89.580 142.466,89.348 142.463 C 89.261 142.462,88.259 143.185,87.122 144.070 M10.481 144.061 L 9.380 145.038 10.572 144.182 C 11.626 143.426,11.969 143.084,11.673 143.084 C 11.623 143.084,11.086 143.524,10.481 144.061 M324.946 146.081 C 325.454 146.701,329.094 149.564,329.094 149.344 C 329.094 149.268,328.056 148.376,326.789 147.362 C 325.521 146.347,324.691 145.771,324.946 146.081 M7.465 172.337 C 7.465 186.415,7.504 192.174,7.552 185.135 C 7.599 178.096,7.599 166.578,7.552 159.539 C 7.504 152.500,7.465 158.259,7.465 172.337 M81.399 148.528 C 80.291 149.500,80.291 149.501,81.310 148.823 C 81.873 148.449,82.418 148.006,82.521 147.839 C 82.828 147.343,82.573 147.499,81.399 148.528 M331.002 150.831 C 331.002 150.919,331.431 151.296,331.955 151.669 C 332.480 152.043,332.909 152.277,332.909 152.190 C 332.909 152.102,332.480 151.725,331.955 151.351 C 331.431 150.978,331.002 150.744,331.002 150.831 M333.326 152.526 C 333.593 152.958,336.089 154.972,336.089 154.755 C 336.089 154.674,335.416 154.056,334.594 153.382 C 333.771 152.708,333.201 152.323,333.326 152.526 M71.463 155.967 C 70.457 156.756,69.634 157.471,69.634 157.556 C 69.634 157.641,70.493 157.043,71.542 156.228 C 73.233 154.916,73.648 154.531,73.370 154.531 C 73.327 154.531,72.468 155.177,71.463 155.967 M337.969 156.228 C 338.433 156.807,340.223 158.169,340.223 157.945 C 340.223 157.874,339.614 157.334,338.871 156.743 C 338.128 156.152,337.722 155.921,337.969 156.228 M65.978 160.130 L 64.706 161.268 66.057 160.258 C 67.220 159.388,67.640 158.969,67.329 158.987 C 67.285 158.990,66.677 159.504,65.978 160.130 M341.812 159.076 C 341.812 159.158,342.485 159.775,343.308 160.449 C 344.130 161.123,344.701 161.509,344.575 161.306 C 344.308 160.873,341.812 158.860,341.812 159.076 M63.263 162.185 L 62.162 163.162 63.355 162.306 C 64.408 161.550,64.751 161.208,64.455 161.208 C 64.405 161.208,63.869 161.648,63.263 162.185 M344.992 161.610 C 344.992 161.680,345.600 162.221,346.343 162.812 C 347.087 163.402,347.493 163.634,347.246 163.327 C 346.781 162.748,344.992 161.386,344.992 161.610 M351.351 166.591 C 351.963 167.136,352.893 167.879,353.418 168.241 C 354.223 168.797,354.198 168.745,353.259 167.908 C 352.647 167.363,351.717 166.620,351.192 166.258 C 350.388 165.702,350.413 165.754,351.351 166.591 M55.485 168.072 L 54.531 168.892 55.564 168.208 C 56.133 167.832,56.598 167.462,56.598 167.387 C 56.598 167.149,56.463 167.232,55.485 168.072 M354.531 168.928 C 354.531 168.998,355.425 169.745,356.518 170.587 C 357.611 171.429,358.255 171.834,357.948 171.486 C 357.367 170.827,354.531 168.704,354.531 168.928 M361.322 174.172 C 361.574 174.579,363.434 175.956,363.434 175.735 C 363.434 175.656,362.909 175.192,362.267 174.702 C 361.625 174.212,361.200 173.974,361.322 174.172 M365.520 177.327 C 366.434 178.165,369.162 180.296,372.814 183.024 C 373.688 183.677,374.196 183.958,373.942 183.649 C 373.688 183.339,372.735 182.563,371.825 181.925 C 370.915 181.286,368.905 179.789,367.359 178.599 C 365.812 177.408,364.985 176.836,365.520 177.327 M219.555 179.332 L 217.329 179.491 217.248 206.498 C 217.183 227.894,217.249 233.558,217.566 233.759 C 218.351 234.258,271.101 234.077,271.518 233.575 C 271.795 233.241,271.865 227.660,271.795 211.556 L 271.701 189.984 270.769 188.076 C 269.762 186.016,265.434 181.397,263.643 180.471 C 261.680 179.456,229.469 178.624,219.555 179.332 M33.374 184.761 L 32.273 185.737 33.466 184.882 C 34.520 184.126,34.862 183.784,34.567 183.784 C 34.516 183.784,33.980 184.223,33.374 184.761 M374.563 184.217 C 374.563 184.305,374.992 184.682,375.517 185.056 C 376.041 185.429,376.471 185.663,376.471 185.576 C 376.471 185.488,376.041 185.111,375.517 184.738 C 374.992 184.364,374.563 184.130,374.563 184.217 M30.525 186.841 C 29.738 187.456,28.879 188.186,28.617 188.464 C 28.355 188.742,29.034 188.296,30.127 187.471 C 31.220 186.647,32.114 185.909,32.114 185.832 C 32.114 185.611,32.040 185.659,30.525 186.841 M378.052 186.972 C 378.835 187.697,379.765 188.440,380.119 188.623 C 380.956 189.057,380.816 188.927,378.537 187.146 C 376.675 185.691,376.663 185.687,378.052 186.972 M383.861 191.283 C 383.965 191.450,384.730 192.076,385.562 192.674 C 386.394 193.271,386.990 193.623,386.886 193.455 C 386.783 193.287,386.017 192.661,385.185 192.064 C 384.353 191.466,383.757 191.115,383.861 191.283 M20.093 193.954 C 18.990 194.618,17.989 195.273,17.867 195.411 C 17.515 195.810,21.414 193.621,21.928 193.131 C 22.606 192.485,22.328 192.610,20.093 193.954 M134.261 256.922 L 133.545 257.213 133.548 278.766 C 133.550 299.044,133.586 300.436,134.156 302.309 C 135.635 307.173,138.811 310.355,144.007 312.178 C 145.825 312.816,187.724 313.174,188.869 312.561 C 189.665 312.135,189.902 257.527,189.110 257.014 C 188.548 256.651,135.147 256.561,134.261 256.922 M188.057 257.544 L 188.875 257.855 188.794 284.969 L 188.712 312.083 168.362 312.181 C 142.753 312.306,141.963 312.190,137.825 307.722 C 133.892 303.473,133.835 303.038,133.938 278.075 L 134.022 257.739 134.817 257.518 C 136.093 257.163,187.121 257.188,188.057 257.544 " stroke="none" fill="#949ca4" fill-rule="evenodd"></path><path id="path5" d="M216.852 256.909 C 216.254 257.287,215.950 311.150,216.540 312.253 C 216.862 312.854,217.262 312.878,227.320 312.878 L 237.765 312.878 239.030 310.731 C 239.725 309.551,240.767 307.727,241.344 306.677 C 247.157 296.109,261.051 279.189,269.396 272.518 L 271.860 270.547 271.860 263.954 C 271.860 259.250,271.751 257.252,271.479 256.979 C 270.998 256.499,217.610 256.430,216.852 256.909 M271.156 263.434 C 271.268 270.550,271.430 270.029,268.341 272.496 C 262.828 276.899,254.286 286.435,248.403 294.754 C 246.981 296.765,245.417 298.972,244.928 299.658 C 244.438 300.344,242.529 303.421,240.683 306.494 L 237.329 312.083 227.965 312.172 C 222.815 312.221,218.279 312.182,217.886 312.086 L 217.170 311.912 217.170 284.944 C 217.170 270.111,217.266 257.879,217.384 257.762 C 217.501 257.644,229.628 257.585,244.331 257.629 L 271.065 257.711 271.156 263.434 " stroke="none" fill="#cea698" fill-rule="evenodd"></path><path id="path6" d="M195.390 3.784 C 192.789 4.458,186.856 8.144,182.258 11.942 C 181.611 12.477,180.223 13.561,179.173 14.350 C 175.082 17.426,161.577 27.838,159.618 29.425 C 158.482 30.347,156.884 31.579,156.069 32.164 C 155.253 32.749,153.497 34.086,152.167 35.135 C 150.836 36.184,148.987 37.615,148.057 38.315 C 145.878 39.955,141.251 43.522,132.654 50.192 C 129.803 52.403,126.422 55.000,125.140 55.962 C 123.858 56.924,122.041 58.313,121.102 59.048 C 112.388 65.879,105.653 70.681,105.189 70.394 C 105.046 70.305,104.928 63.951,104.928 56.272 C 104.928 42.795,104.907 42.300,104.313 41.983 C 103.217 41.396,46.901 41.539,46.310 42.130 C 45.896 42.543,45.812 46.253,45.673 70.190 C 45.566 88.650,45.366 100.036,45.068 104.610 L 44.623 111.447 42.967 114.697 C 41.115 118.332,37.608 121.763,30.197 127.186 C 29.360 127.798,27.291 129.444,25.599 130.843 C 21.189 134.488,18.805 136.281,17.170 137.178 C 16.383 137.611,15.275 138.533,14.708 139.228 C 14.141 139.924,12.319 141.513,10.659 142.761 C 8.999 144.008,7.424 145.339,7.159 145.717 C 6.441 146.742,6.427 198.443,7.145 199.038 C 8.638 200.277,16.454 197.822,21.561 194.511 C 22.731 193.752,24.547 192.578,25.596 191.903 C 26.645 191.227,28.917 189.589,30.643 188.262 C 32.370 186.936,34.472 185.350,35.315 184.738 C 36.157 184.126,39.941 181.264,43.723 178.378 C 47.504 175.493,51.248 172.679,52.043 172.125 C 52.837 171.571,53.865 170.769,54.327 170.343 C 54.789 169.917,55.811 169.115,56.598 168.559 C 58.867 166.958,65.967 161.612,79.332 151.441 C 81.606 149.710,85.827 146.526,88.712 144.364 C 91.598 142.203,94.687 139.886,95.578 139.215 C 97.620 137.678,97.946 137.670,97.705 139.159 C 97.569 139.995,97.619 140.258,97.884 140.094 C 98.086 139.969,98.251 139.586,98.251 139.242 C 98.251 138.855,98.585 138.486,99.126 138.274 L 100.000 137.931 99.248 137.643 C 98.217 137.247,98.437 137.022,103.803 132.964 C 106.258 131.108,109.269 128.820,110.493 127.881 C 111.717 126.942,113.720 125.406,114.944 124.467 C 118.663 121.615,126.002 115.927,129.094 113.499 C 130.231 112.607,132.448 110.891,134.022 109.687 C 136.558 107.746,138.769 106.035,147.377 99.352 C 149.842 97.438,156.317 92.439,160.731 89.041 C 162.305 87.829,164.595 86.052,165.819 85.091 C 167.043 84.130,169.905 81.909,172.178 80.155 C 174.452 78.401,177.528 76.017,179.014 74.858 C 180.501 73.699,182.432 72.207,183.307 71.542 C 184.181 70.878,186.113 69.384,187.599 68.223 C 195.337 62.180,198.318 60.051,201.113 58.569 C 203.322 57.399,206.836 57.379,208.789 58.527 C 210.888 59.759,216.172 63.459,218.656 65.435 C 219.911 66.433,223.174 68.967,225.907 71.065 C 228.640 73.164,231.763 75.570,232.847 76.413 C 233.930 77.255,236.055 78.901,237.567 80.069 C 239.079 81.238,243.350 84.555,247.058 87.440 C 250.766 90.326,254.468 93.188,255.285 93.800 C 258.388 96.123,261.407 98.686,261.711 99.253 C 261.884 99.577,262.701 100.189,263.525 100.613 C 265.105 101.425,266.859 102.718,278.227 111.447 C 286.669 117.929,293.694 123.311,295.866 124.960 C 296.741 125.624,299.531 127.761,302.067 129.709 C 304.603 131.657,308.581 134.712,310.908 136.498 C 313.235 138.284,316.096 140.496,317.267 141.413 C 318.438 142.330,320.308 143.760,321.423 144.592 C 322.538 145.424,324.051 146.606,324.785 147.218 C 326.127 148.336,328.074 149.858,332.707 153.409 C 334.083 154.463,335.752 155.755,336.416 156.280 C 339.399 158.634,352.097 168.405,360.590 174.881 C 373.748 184.915,376.992 187.377,378.855 188.747 C 379.905 189.519,381.300 190.586,381.957 191.120 C 384.277 193.004,388.199 195.482,389.718 196.022 C 390.564 196.323,391.557 196.710,391.924 196.882 C 392.291 197.054,392.935 197.146,393.355 197.087 L 394.118 196.979 394.199 168.625 L 394.280 140.272 391.973 138.405 C 390.704 137.379,389.022 136.079,388.235 135.517 C 387.448 134.955,385.731 133.643,384.420 132.601 C 383.108 131.560,381.105 130.034,379.968 129.210 C 378.831 128.386,377.544 127.387,377.107 126.990 C 376.669 126.592,375.567 125.722,374.656 125.057 C 373.746 124.392,369.678 121.272,365.616 118.124 C 361.554 114.976,356.576 111.141,354.554 109.600 C 352.532 108.060,350.564 106.506,350.181 106.146 C 349.798 105.786,348.834 105.043,348.040 104.495 C 347.246 103.946,345.055 102.283,343.171 100.798 C 341.287 99.313,338.100 96.841,336.089 95.305 C 334.078 93.769,331.373 91.693,330.077 90.691 C 328.782 89.690,326.039 87.583,323.983 86.010 C 321.927 84.436,318.010 81.431,315.278 79.332 C 312.547 77.234,309.550 74.944,308.619 74.245 C 307.687 73.545,305.760 72.079,304.337 70.986 C 302.913 69.893,300.584 68.104,299.161 67.011 C 295.200 63.970,293.369 62.584,291.703 61.367 C 290.865 60.755,289.671 59.813,289.049 59.274 C 288.426 58.735,285.939 56.803,283.521 54.981 C 281.102 53.160,278.284 51.025,277.258 50.238 C 276.231 49.452,274.794 48.378,274.065 47.854 C 273.335 47.329,272.219 46.459,271.584 45.920 C 270.412 44.926,263.792 39.866,260.890 37.746 C 260.016 37.107,258.585 36.007,257.711 35.301 C 256.836 34.596,253.164 31.766,249.551 29.012 C 245.937 26.259,240.365 22.003,237.167 19.555 C 222.862 8.602,220.254 6.726,217.234 5.217 L 214.149 3.675 205.246 3.606 C 200.350 3.568,195.914 3.648,195.390 3.784 M216.566 5.446 C 220.556 7.375,221.842 8.311,245.564 26.551 C 246.928 27.600,250.147 30.075,252.718 32.052 C 255.289 34.030,259.253 37.059,261.526 38.785 C 263.800 40.511,266.804 42.805,268.203 43.882 C 269.603 44.960,271.805 46.653,273.099 47.643 C 274.392 48.633,276.198 50.016,277.111 50.715 C 281.736 54.258,289.158 59.934,292.494 62.480 C 300.820 68.835,308.015 74.348,310.339 76.153 C 311.691 77.202,315.624 80.207,319.079 82.830 C 322.535 85.453,326.187 88.243,327.195 89.030 C 330.049 91.258,346.143 103.667,348.022 105.087 C 352.987 108.842,368.168 120.603,372.019 123.679 C 372.806 124.307,375.382 126.285,377.742 128.074 C 380.103 129.863,382.965 132.054,384.102 132.943 C 385.238 133.831,386.955 135.144,387.917 135.860 C 388.879 136.576,390.632 137.928,391.812 138.865 L 393.959 140.568 393.954 168.297 C 393.951 183.547,393.825 196.221,393.674 196.460 C 393.446 196.819,393.088 196.778,391.611 196.226 C 387.441 194.665,386.226 193.851,372.934 183.711 C 361.989 175.361,359.197 173.235,353.418 168.845 C 347.591 164.418,342.550 160.524,337.202 156.318 C 334.842 154.462,328.254 149.344,322.419 144.833 C 321.062 143.784,314.818 138.974,308.545 134.144 C 302.271 129.314,296.208 124.629,295.072 123.733 C 293.935 122.836,292.218 121.533,291.256 120.836 C 290.294 120.140,288.577 118.839,287.440 117.947 C 286.304 117.054,284.372 115.562,283.148 114.632 C 281.924 113.701,278.847 111.344,276.312 109.393 C 273.776 107.443,269.984 104.577,267.886 103.026 C 262.760 99.237,262.115 98.741,259.195 96.343 C 257.811 95.207,254.550 92.641,251.948 90.642 C 249.346 88.643,245.143 85.392,242.607 83.418 C 240.072 81.444,235.564 77.953,232.591 75.659 C 229.618 73.365,225.593 70.249,223.646 68.733 C 203.751 53.249,206.044 53.163,184.261 70.219 C 183.386 70.904,179.666 73.775,175.994 76.599 C 172.321 79.423,168.529 82.364,167.568 83.134 C 165.802 84.548,162.017 87.485,150.745 96.189 C 147.350 98.810,142.557 102.518,140.093 104.429 C 137.628 106.340,134.396 108.837,132.909 109.977 C 131.423 111.117,129.369 112.701,128.346 113.497 C 116.716 122.545,111.452 126.613,107.949 129.262 C 105.851 130.848,100.279 135.055,95.568 138.609 C 86.032 145.803,75.239 153.973,67.621 159.766 C 64.852 161.871,61.607 164.308,60.409 165.183 C 59.212 166.057,56.544 168.060,54.481 169.634 C 43.482 178.025,35.765 183.870,34.570 184.716 C 33.832 185.240,32.154 186.501,30.843 187.519 C 27.583 190.050,23.629 192.720,19.009 195.510 C 16.099 197.266,8.657 199.448,7.679 198.831 C 7.047 198.432,6.695 147.420,7.316 146.259 C 7.495 145.925,9.248 144.403,11.213 142.876 C 13.178 141.349,15.038 139.780,15.347 139.389 C 15.656 138.998,16.443 138.352,17.096 137.953 C 18.396 137.159,21.337 134.921,24.347 132.436 C 27.055 130.200,29.918 127.901,33.068 125.432 C 40.945 119.258,41.528 118.651,43.496 114.561 L 45.148 111.129 45.501 106.359 C 45.701 103.647,45.920 88.974,46.008 72.337 C 46.111 52.959,46.274 42.950,46.491 42.687 C 46.749 42.374,52.950 42.289,75.543 42.289 L 104.268 42.289 104.360 56.572 C 104.410 64.427,104.565 70.967,104.703 71.105 C 105.265 71.666,113.841 65.459,129.711 53.003 C 131.538 51.570,134.908 48.967,137.201 47.218 C 139.494 45.469,144.427 41.677,148.163 38.792 C 151.899 35.906,155.897 32.824,157.048 31.941 C 158.200 31.059,159.872 29.772,160.766 29.080 C 161.659 28.388,165.809 25.186,169.987 21.965 C 174.165 18.743,179.268 14.808,181.327 13.221 C 193.400 3.912,193.608 3.831,205.251 3.915 L 213.523 3.975 216.566 5.446 M216.773 178.395 C 215.850 178.947,215.917 234.476,216.841 234.970 C 217.944 235.560,272.443 235.257,272.821 234.658 C 273.405 233.733,273.214 193.217,272.614 190.799 C 271.798 187.515,270.551 185.393,267.819 182.637 C 266.450 181.257,265.118 179.796,264.859 179.392 C 264.477 178.795,264.029 178.628,262.480 178.501 C 258.269 178.158,217.327 178.063,216.773 178.395 M162.639 178.678 L 145.787 178.855 143.695 179.730 C 142.545 180.211,141.433 180.604,141.225 180.604 C 139.603 180.604,135.080 186.660,134.063 190.192 C 133.392 192.523,133.265 233.297,133.927 233.959 C 134.407 234.439,188.114 234.508,188.871 234.029 C 189.453 233.661,189.609 179.608,189.030 179.067 C 188.531 178.599,180.870 178.487,162.639 178.678 M260.991 179.176 C 264.047 179.716,264.193 179.803,267.476 183.036 C 270.235 185.752,271.597 188.139,272.156 191.235 C 272.662 194.042,272.624 233.767,272.114 234.277 C 271.562 234.830,217.469 234.830,216.916 234.277 C 216.511 233.872,216.328 180.240,216.727 179.199 C 217.007 178.471,256.886 178.450,260.991 179.176 M133.409 256.462 C 132.495 257.375,132.671 299.871,133.600 302.680 C 135.208 307.541,138.466 310.836,143.391 312.580 C 145.537 313.340,189.016 313.559,189.762 312.814 C 190.518 312.057,190.289 256.698,189.528 256.291 C 188.395 255.685,134.021 255.850,133.409 256.462 M216.494 256.806 C 215.807 257.632,215.847 312.449,216.534 312.887 C 216.819 313.068,221.234 313.160,227.504 313.114 L 237.997 313.037 239.905 309.754 C 247.946 295.919,261.294 279.119,268.521 273.738 C 269.046 273.347,270.083 272.449,270.827 271.742 L 272.178 270.456 272.178 263.749 C 272.178 258.957,272.069 256.934,271.797 256.661 C 271.118 255.982,217.060 256.123,216.494 256.806 M189.747 284.385 C 189.807 304.534,189.732 312.130,189.470 312.445 C 188.821 313.227,146.409 313.062,143.796 312.267 C 138.822 310.755,135.273 307.125,133.821 302.068 C 133.226 299.996,132.858 258.567,133.421 257.099 C 133.596 256.643,136.290 256.602,161.640 256.676 L 189.666 256.757 189.747 284.385 M271.479 256.979 C 271.751 257.252,271.860 259.250,271.860 263.954 L 271.860 270.547 269.396 272.518 C 261.051 279.189,247.157 296.109,241.344 306.677 C 240.767 307.727,239.725 309.551,239.030 310.731 L 237.765 312.878 227.320 312.878 C 217.262 312.878,216.862 312.854,216.540 312.253 C 215.950 311.150,216.254 257.287,216.852 256.909 C 217.610 256.430,270.998 256.499,271.479 256.979 " stroke="none" fill="#cce1e4" fill-rule="evenodd"></path></g></svg>